<svg id="regular" enable-background="new 0 0 24 24" height="512" viewBox="0 0 24 24" width="512" xmlns="http://www.w3.org/2000/svg"><path d="m12 24c-6.617 0-12-5.383-12-12s5.383-12 12-12 12 5.383 12 12-5.383 12-12 12zm0-22.5c-5.79 0-10.5 4.71-10.5 10.5s4.71 10.5 10.5 10.5 10.5-4.71 10.5-10.5-4.71-10.5-10.5-10.5z"/><path d="m18.25 10.25c-.414 0-.75-.336-.75-.75 0-.551-.449-1-1-1s-1 .449-1 1c0 .414-.336.75-.75.75s-.75-.336-.75-.75c0-1.378 1.122-2.5 2.5-2.5s2.5 1.122 2.5 2.5c0 .414-.336.75-.75.75z"/><path d="m9.25 10.25c-.414 0-.75-.336-.75-.75 0-.551-.449-1-1-1s-1 .449-1 1c0 .414-.336.75-.75.75s-.75-.336-.75-.75c0-1.378 1.122-2.5 2.5-2.5s2.5 1.122 2.5 2.5c0 .414-.336.75-.75.75z"/><path d="m12 19c-2.776 0-5.348-1.416-6.88-3.786-.225-.348-.125-.812.223-1.037.348-.226.812-.125 1.037.223 1.254 1.941 3.355 3.1 5.62 3.1s4.366-1.159 5.62-3.1c.225-.347.69-.448 1.037-.223.348.225.447.689.223 1.037-1.532 2.37-4.104 3.786-6.88 3.786z"/><path d="m12.25 18.99c-.414 0-.75-.336-.75-.75v-3.49c0-.334-.129-.645-.363-.873-.242-.248-.552-.377-.887-.377-.689 0-1.25.561-1.25 1.25v2.47c0 .414-.336.75-.75.75s-.75-.336-.75-.75v-2.47c0-1.516 1.233-2.75 2.75-2.75.743 0 1.434.29 1.947.816.513.5.803 1.191.803 1.934v3.49c0 .414-.336.75-.75.75z"/></svg>